<svg width="13" height="13" viewBox="0 0 13 13" fill="none" xmlns="http://www.w3.org/2000/svg">
<path d="M11.4524 7.11914V8.97628C11.4524 9.78105 9.51234 10.8334 7.1191 10.8334C4.72586 10.8334 2.78577 9.78105 2.78577 8.97628V7.42866" stroke="black" stroke-width="0.619048" stroke-linecap="round" stroke-linejoin="round"/>
<path d="M2.96765 7.58903C3.50313 8.2997 5.15908 8.96641 7.11898 8.96641C9.51222 8.96641 11.4523 7.97222 11.4523 7.11794C11.4523 6.63818 10.8413 6.1126 9.88241 5.74365" stroke="black" stroke-width="0.619048" stroke-linecap="round" stroke-linejoin="round"/>
<path d="M9.59526 4.02393V5.88107C9.59526 6.68583 7.65516 7.73821 5.26192 7.73821C2.86868 7.73821 0.928589 6.68583 0.928589 5.88107V4.02393" stroke="black" stroke-width="0.619048" stroke-linecap="round" stroke-linejoin="round"/>
<path fill-rule="evenodd" clip-rule="evenodd" d="M5.26192 5.87113C7.65516 5.87113 9.59526 4.87694 9.59526 4.02265C9.59526 3.16837 7.65516 2.16675 5.26192 2.16675C2.86868 2.16675 0.928589 3.16775 0.928589 4.02265C0.928589 4.87694 2.86868 5.87113 5.26192 5.87113Z" stroke="black" stroke-width="0.619048" stroke-linecap="round" stroke-linejoin="round"/>
</svg>
